<?xml version="1.0" encoding="UTF-8" standalone="no"?>
<!-- Generator: Adobe Illustrator 19.0.0, SVG Export Plug-In . SVG Version: 6.00 Build 0)  -->

<svg
   version="1.1"
   id="Layer_1"
   x="0px"
   y="0px"
   viewBox="0 0 70 70"
   xml:space="preserve"
   sodipodi:docname="while_do.svg"
   inkscape:version="1.1 (c68e22c387, 2021-05-23)"
   width="70"
   height="70"
   xmlns:inkscape="http://www.inkscape.org/namespaces/inkscape"
   xmlns:sodipodi="http://sodipodi.sourceforge.net/DTD/sodipodi-0.dtd"
   xmlns:xlink="http://www.w3.org/1999/xlink"
   xmlns="http://www.w3.org/2000/svg"
   xmlns:svg="http://www.w3.org/2000/svg"
   xmlns:rdf="http://www.w3.org/1999/02/22-rdf-syntax-ns#"
   xmlns:cc="http://creativecommons.org/ns#"
   xmlns:dc="http://purl.org/dc/elements/1.1/"><metadata
   id="metadata2932"><rdf:RDF><cc:Work
       rdf:about=""><dc:format>image/svg+xml</dc:format><dc:type
         rdf:resource="http://purl.org/dc/dcmitype/StillImage" /><dc:title /></cc:Work></rdf:RDF></metadata><defs
   id="defs2930"><linearGradient
     inkscape:collect="always"
     id="linearGradient3484"><stop
       style="stop-color:#000000;stop-opacity:1;"
       offset="0"
       id="stop3480" /><stop
       style="stop-color:#000000;stop-opacity:0;"
       offset="1"
       id="stop3482" /></linearGradient><linearGradient
     inkscape:collect="always"
     xlink:href="#linearGradient3484"
     id="linearGradient3486"
     x1="-0.050000001"
     y1="246.002"
     x2="492.05411"
     y2="246.002"
     gradientUnits="userSpaceOnUse" /></defs><sodipodi:namedview
   pagecolor="#ffffff"
   bordercolor="#666666"
   borderopacity="1"
   objecttolerance="10"
   gridtolerance="10"
   guidetolerance="10"
   inkscape:pageopacity="0"
   inkscape:pageshadow="2"
   inkscape:window-width="1920"
   inkscape:window-height="1017"
   id="namedview2928"
   showgrid="false"
   inkscape:pagecheckerboard="true"
   inkscape:zoom="7.312"
   inkscape:cx="24.548687"
   inkscape:cy="43.968818"
   inkscape:window-x="-8"
   inkscape:window-y="-8"
   inkscape:window-maximized="1"
   inkscape:current-layer="Layer_1" />

<g
   id="g2897"
   transform="translate(0,-422.004)">
</g>
<g
   id="g2899"
   transform="translate(0,-422.004)">
</g>
<g
   id="g2901"
   transform="translate(0,-422.004)">
</g>
<g
   id="g2903"
   transform="translate(0,-422.004)">
</g>
<g
   id="g2905"
   transform="translate(0,-422.004)">
</g>
<g
   id="g2907"
   transform="translate(0,-422.004)">
</g>
<g
   id="g2909"
   transform="translate(0,-422.004)">
</g>
<g
   id="g2911"
   transform="translate(0,-422.004)">
</g>
<g
   id="g2913"
   transform="translate(0,-422.004)">
</g>
<g
   id="g2915"
   transform="translate(0,-422.004)">
</g>
<g
   id="g2917"
   transform="translate(0,-422.004)">
</g>
<g
   id="g2919"
   transform="translate(0,-422.004)">
</g>
<g
   id="g2921"
   transform="translate(0,-422.004)">
</g>
<g
   id="g2923"
   transform="translate(0,-422.004)">
</g>
<g
   id="g2925"
   transform="translate(0,-422.004)">
</g>
<g
   id="g28759"
   transform="matrix(0.41680139,0,0,0.41742604,34.941336,25.819454)"
   style="fill:#ffffff;fill-opacity:1;stroke:#000000;stroke-width:1.29326;stroke-miterlimit:4;stroke-dasharray:none;stroke-opacity:1"><path
     style="fill:#ffffff;fill-opacity:1;stroke:#000000;stroke-width:0.111251;stroke-miterlimit:4;stroke-dasharray:none;stroke-opacity:1"
     d="M 47.212089,74.011179 C 45.064877,73.71049 43.01428,72.206913 42.044767,70.222304 41.644402,69.402746 41.586115,68.94663 41.612963,66.843257 c 0.09202,-7.209018 3.882949,-14.603017 9.793136,-19.100977 0.873613,-0.664865 2.72546,-1.876303 4.115214,-2.69209 3.767181,-2.211331 5.652441,-4.238468 6.853797,-7.369581 2.390097,-6.229351 -0.405772,-13.50943 -6.492024,-16.904381 -2.699637,-1.505875 -6.320203,-2.221727 -9.383387,-1.855266 -3.866929,0.462617 -6.224334,1.535797 -8.893001,4.048425 -2.825598,2.660384 -3.918579,4.968025 -4.259046,8.992235 -0.281852,3.3314 -1.377948,5.103263 -3.928204,6.350023 -0.930972,0.455132 -1.403153,0.548075 -2.830867,0.557225 -1.454418,0.0093 -1.896861,-0.07419 -2.92596,-0.552297 -1.340017,-0.622548 -2.480094,-1.696671 -3.210035,-3.024334 -1.044423,-1.899659 -0.689092,-6.886894 0.788265,-11.063687 3.295951,-9.31833 11.632258,-16.1142754 21.947504,-17.8920958 2.343753,-0.4039434 7.999049,-0.359575 10.320179,0.080972 15.737885,2.9869913 25.81065,17.1264158 22.654351,31.8005578 -1.635193,7.602273 -6.455132,13.750298 -14.101569,17.987111 -2.477044,1.372505 -4.348563,3.199796 -5.444677,5.316013 -0.95387,1.84159 -1.357319,3.339864 -1.603139,5.953497 -0.221491,2.354947 -0.72786,3.561073 -2.000526,4.765068 -1.496312,1.415575 -3.648723,2.072891 -5.800885,1.771508 z"
     id="path822"
     inkscape:connector-curvature="0" /><path
     style="fill:#ffffff;fill-opacity:1;stroke:#000000;stroke-width:0.111251;stroke-miterlimit:4;stroke-dasharray:none;stroke-opacity:1"
     d="m 46.525162,95.494942 c -2.408194,-0.78349 -4.197287,-2.328973 -5.342016,-4.61463 -0.620687,-1.239313 -0.672174,-1.505092 -0.672174,-3.469767 0,-1.967069 0.05054,-2.227059 0.669503,-3.444768 1.241345,-2.442102 3.053767,-3.928694 5.725926,-4.696543 5.492032,-1.578143 11.145965,2.197038 11.448166,7.644043 0.144727,2.608621 -0.544219,4.419434 -2.416485,6.351445 -2.339727,2.41439 -6.104869,3.306471 -9.41292,2.23022 z"
     id="path824"
     inkscape:connector-curvature="0" /></g><path
   style="fill:#ffffff;fill-opacity:1;stroke:#000000;stroke-width:0.079206;stroke-opacity:1"
   d="M 22.641193,48.501289 C 20.78473,48.403364 18.897232,48.006828 16.977955,47.31153 16.008947,46.960487 14.052759,45.960441 13.136458,45.347679 7.655247,41.682198 4.4237839,35.686 4.4237839,29.180724 c 0,-2.508106 0.4483137,-4.810888 1.4032311,-7.207758 2.6310436,-6.603992 8.854512,-11.315958 15.906122,-12.042981 1.364794,-0.1407107 4.018605,-0.060345 5.254224,0.159114 4.125726,0.732773 7.68446,2.589508 10.638965,5.550778 l 0.926044,0.928165 0.02623,-2.742957 c 0.02948,-3.082072 0.02213,-3.039263 0.636205,-3.705456 0.454633,-0.4932171 0.850074,-0.6784065 1.545605,-0.7238233 0.526454,-0.034378 0.618537,-0.016147 1.089343,0.2156275 0.358617,0.1765469 0.598643,0.3636694 0.793013,0.6182278 0.52864,0.692338 0.519386,0.565946 0.495084,6.760926 l -0.02189,5.576425 -0.179526,0.364337 c -0.216584,0.439555 -0.657614,0.897111 -1.087775,1.128538 -0.314745,0.169335 -0.354217,0.170598 -6.0129,0.192291 -6.426427,0.02464 -6.146655,0.04833 -6.844981,-0.579532 -1.208124,-1.086204 -0.906329,-3.022962 0.580931,-3.72813 0.391098,-0.185435 0.427844,-0.187783 2.950428,-0.188547 1.413502,-3.96e-4 2.554398,-0.03185 2.554398,-0.07034 0,-0.133059 -1.073766,-1.229727 -1.782138,-1.820149 -2.999737,-2.500254 -6.885282,-3.75368 -10.639446,-3.432149 -2.10634,0.1804 -3.587007,0.584176 -5.439399,1.483315 -6.669356,3.237261 -9.8756733,10.876622 -7.5222481,17.922478 1.7887431,5.355272 6.4822331,9.215209 12.1004581,9.951444 4.482063,0.587349 8.966616,-0.877724 12.194398,-3.983829 0.923749,-0.888926 1.474985,-1.568373 2.301185,-2.836413 0.514582,-0.789771 0.758132,-1.088521 1.03914,-1.274652 1.288463,-0.853443 2.964587,-0.275155 3.445131,1.188624 0.149275,0.4547 0.118326,1.188052 -0.0679,1.609054 -0.193972,0.438505 -1.031628,1.728545 -1.691327,2.604749 -0.666052,0.884636 -2.632175,2.822031 -3.575433,3.523188 -0.995887,0.740279 -2.403015,1.595525 -3.372255,2.049645 -2.190604,1.026361 -4.73593,1.695465 -6.840649,1.798236 -0.48507,0.02369 -1.024519,0.05327 -1.198772,0.06579 -0.174253,0.0125 -0.798003,-0.0029 -1.386108,-0.03365 z"
   id="path887"
   inkscape:connector-curvature="0" /></svg>
