<?xml version="1.0" encoding="UTF-8" standalone="no"?>
<!-- Generator: Adobe Illustrator 19.0.0, SVG Export Plug-In . SVG Version: 6.00 Build 0)  -->

<svg
   version="1.1"
   id="Layer_1"
   x="0px"
   y="0px"
   viewBox="0 0 70 70"
   xml:space="preserve"
   sodipodi:docname="while.svg"
   inkscape:version="1.1 (c68e22c387, 2021-05-23)"
   width="70"
   height="70"
   xmlns:inkscape="http://www.inkscape.org/namespaces/inkscape"
   xmlns:sodipodi="http://sodipodi.sourceforge.net/DTD/sodipodi-0.dtd"
   xmlns:xlink="http://www.w3.org/1999/xlink"
   xmlns="http://www.w3.org/2000/svg"
   xmlns:svg="http://www.w3.org/2000/svg"
   xmlns:rdf="http://www.w3.org/1999/02/22-rdf-syntax-ns#"
   xmlns:cc="http://creativecommons.org/ns#"
   xmlns:dc="http://purl.org/dc/elements/1.1/"><metadata
   id="metadata2932"><rdf:RDF><cc:Work
       rdf:about=""><dc:format>image/svg+xml</dc:format><dc:type
         rdf:resource="http://purl.org/dc/dcmitype/StillImage" /><dc:title /></cc:Work></rdf:RDF></metadata><defs
   id="defs2930"><linearGradient
     inkscape:collect="always"
     id="linearGradient3484"><stop
       style="stop-color:#000000;stop-opacity:1;"
       offset="0"
       id="stop3480" /><stop
       style="stop-color:#000000;stop-opacity:0;"
       offset="1"
       id="stop3482" /></linearGradient><linearGradient
     inkscape:collect="always"
     xlink:href="#linearGradient3484"
     id="linearGradient3486"
     x1="-0.050000001"
     y1="246.002"
     x2="492.05411"
     y2="246.002"
     gradientUnits="userSpaceOnUse" /></defs><sodipodi:namedview
   pagecolor="#ffffff"
   bordercolor="#666666"
   borderopacity="1"
   objecttolerance="10"
   gridtolerance="10"
   guidetolerance="10"
   inkscape:pageopacity="0"
   inkscape:pageshadow="2"
   inkscape:window-width="1920"
   inkscape:window-height="1017"
   id="namedview2928"
   showgrid="false"
   inkscape:pagecheckerboard="true"
   inkscape:zoom="7.312"
   inkscape:cx="24.548687"
   inkscape:cy="43.968818"
   inkscape:window-x="-8"
   inkscape:window-y="-8"
   inkscape:window-maximized="1"
   inkscape:current-layer="Layer_1" />

<g
   id="g2897"
   transform="translate(0,-422.004)">
</g>
<g
   id="g2899"
   transform="translate(0,-422.004)">
</g>
<g
   id="g2901"
   transform="translate(0,-422.004)">
</g>
<g
   id="g2903"
   transform="translate(0,-422.004)">
</g>
<g
   id="g2905"
   transform="translate(0,-422.004)">
</g>
<g
   id="g2907"
   transform="translate(0,-422.004)">
</g>
<g
   id="g2909"
   transform="translate(0,-422.004)">
</g>
<g
   id="g2911"
   transform="translate(0,-422.004)">
</g>
<g
   id="g2913"
   transform="translate(0,-422.004)">
</g>
<g
   id="g2915"
   transform="translate(0,-422.004)">
</g>
<g
   id="g2917"
   transform="translate(0,-422.004)">
</g>
<g
   id="g2919"
   transform="translate(0,-422.004)">
</g>
<g
   id="g2921"
   transform="translate(0,-422.004)">
</g>
<g
   id="g2923"
   transform="translate(0,-422.004)">
</g>
<g
   id="g2925"
   transform="translate(0,-422.004)">
</g>
<g
   id="g28759"
   transform="matrix(0.2954176,0,0,0.29586034,44.263216,26.549053)"
   style="fill:#ffffff;fill-opacity:1;stroke:#000000;stroke-width:1.29326;stroke-miterlimit:4;stroke-dasharray:none;stroke-opacity:1"><path
     style="fill:#ffffff;fill-opacity:1;stroke:#000000;stroke-width:0.111251;stroke-miterlimit:4;stroke-dasharray:none;stroke-opacity:1"
     d="M 47.212089,74.011179 C 45.064877,73.71049 43.01428,72.206913 42.044767,70.222304 41.644402,69.402746 41.586115,68.94663 41.612963,66.843257 c 0.09202,-7.209018 3.882949,-14.603017 9.793136,-19.100977 0.873613,-0.664865 2.72546,-1.876303 4.115214,-2.69209 3.767181,-2.211331 5.652441,-4.238468 6.853797,-7.369581 2.390097,-6.229351 -0.405772,-13.50943 -6.492024,-16.904381 -2.699637,-1.505875 -6.320203,-2.221727 -9.383387,-1.855266 -3.866929,0.462617 -6.224334,1.535797 -8.893001,4.048425 -2.825598,2.660384 -3.918579,4.968025 -4.259046,8.992235 -0.281852,3.3314 -1.377948,5.103263 -3.928204,6.350023 -0.930972,0.455132 -1.403153,0.548075 -2.830867,0.557225 -1.454418,0.0093 -1.896861,-0.07419 -2.92596,-0.552297 -1.340017,-0.622548 -2.480094,-1.696671 -3.210035,-3.024334 -1.044423,-1.899659 -0.689092,-6.886894 0.788265,-11.063687 3.295951,-9.31833 11.632258,-16.1142754 21.947504,-17.8920958 2.343753,-0.4039434 7.999049,-0.359575 10.320179,0.080972 15.737885,2.9869913 25.81065,17.1264158 22.654351,31.8005578 -1.635193,7.602273 -6.455132,13.750298 -14.101569,17.987111 -2.477044,1.372505 -4.348563,3.199796 -5.444677,5.316013 -0.95387,1.84159 -1.357319,3.339864 -1.603139,5.953497 -0.221491,2.354947 -0.72786,3.561073 -2.000526,4.765068 -1.496312,1.415575 -3.648723,2.072891 -5.800885,1.771508 z"
     id="path822"
     inkscape:connector-curvature="0" /><path
     style="fill:#ffffff;fill-opacity:1;stroke:#000000;stroke-width:0.111251;stroke-miterlimit:4;stroke-dasharray:none;stroke-opacity:1"
     d="m 46.525162,95.494942 c -2.408194,-0.78349 -4.197287,-2.328973 -5.342016,-4.61463 -0.620687,-1.239313 -0.672174,-1.505092 -0.672174,-3.469767 0,-1.967069 0.05054,-2.227059 0.669503,-3.444768 1.241345,-2.442102 3.053767,-3.928694 5.725926,-4.696543 5.492032,-1.578143 11.145965,2.197038 11.448166,7.644043 0.144727,2.608621 -0.544219,4.419434 -2.416485,6.351445 -2.339727,2.41439 -6.104869,3.306471 -9.41292,2.23022 z"
     id="path824"
     inkscape:connector-curvature="0" /></g><path
   style="fill:#ffffff;fill-opacity:1;stroke:#000000;stroke-width:0.097352;stroke-opacity:1"
   d="M 26.82386,57.472352 C 24.542083,57.351993 22.222161,56.864611 19.863179,56.01002 18.672172,55.578553 16.267823,54.349398 15.141598,53.596252 8.4046457,49.091013 4.4328569,41.72109 4.4328569,33.72546 c 0,-3.082711 0.551022,-5.913058 1.7247103,-8.859049 C 9.3913809,16.749449 17.040641,10.957975 25.70777,10.064392 c 1.677467,-0.1729474 4.939264,-0.07417 6.457962,0.195567 5.070927,0.90065 9.444964,3.182762 13.076344,6.822457 l 1.1382,1.140807 0.03224,-3.371367 c 0.03623,-3.788172 0.0272,-3.735556 0.78196,-4.554373 0.558788,-0.6062125 1.044825,-0.8338287 1.899701,-0.8896504 0.647065,-0.042254 0.760244,-0.019846 1.338911,0.2650276 0.440776,0.2169936 0.735792,0.4469858 0.974692,0.7598638 0.649751,0.850951 0.638376,0.695603 0.608507,8.309848 l -0.0269,6.85398 -0.220655,0.447807 c -0.266204,0.540256 -0.808273,1.102638 -1.336984,1.387085 -0.386853,0.208129 -0.435368,0.209681 -7.39045,0.236344 -7.898717,0.03028 -7.55485,0.0594 -8.413162,-0.712302 -1.484904,-1.335053 -1.113968,-3.71552 0.714022,-4.582242 0.480699,-0.227918 0.525863,-0.230804 3.626369,-0.231743 1.737335,-4.87e-4 3.139609,-0.03914 3.139609,-0.08645 0,-0.163542 -1.319765,-1.511456 -2.190424,-2.237143 -3.686975,-3.073061 -8.462696,-4.613646 -13.076935,-4.218452 -2.588901,0.22173 -4.408788,0.71801 -6.685562,1.823141 -8.1973,3.978915 -12.1381821,13.368448 -9.245589,22.028504 2.198543,6.582161 7.967308,11.326406 14.872664,12.231313 5.5089,0.721909 11.02086,-1.078811 14.988125,-4.896522 1.135379,-1.092578 1.812903,-1.927686 2.828385,-3.486233 0.632472,-0.970707 0.931819,-1.3379 1.277206,-1.566674 1.583649,-1.048966 3.643771,-0.338192 4.234408,1.460937 0.183473,0.558872 0.145434,1.460234 -0.08346,1.977687 -0.238411,0.538966 -1.267973,2.124553 -2.078809,3.201495 -0.818643,1.087306 -3.235204,3.468557 -4.394561,4.330348 -1.224045,0.909876 -2.953544,1.961059 -4.144836,2.519217 -2.69247,1.2615 -5.820929,2.083895 -8.407837,2.21021 -0.596199,0.02912 -1.259235,0.06548 -1.47341,0.08086 -0.214174,0.01537 -0.980824,-0.0036 -1.703664,-0.04136 z"
   id="path887"
   inkscape:connector-curvature="0" /></svg>
